{
	"asset":{
		"version":"2.0",
		"generator":"Created using the official Cinema 4D glTF Exporter 1.000x290161"
	},
	"scenes":[{
		"nodes":[0,
		2]
	}],
	"nodes":[{
		"name":"Top",
		"translation":[-12.102783203125,
		5.8678879737854,
		-3.2260165214538576],
		"rotation":[0.7490354180335999,
		-0.19417467713356019,
		0.42242148518562319,
		-0.4720193147659302],
		"scale":[1.0,
		1.0,
		1.0],
		"children":[1]
	},
	{
		"name":"Top.3",
		"translation":[4.192426681518555,
		1.1449174941446928e-16,
		-3.469446951953614e-17],
		"rotation":[0.0,
		0.0,
		0.0,
		-1.0],
		"scale":[1.0,
		1.0,
		1.0],
		"mesh":0
	},
	{
		"name":"Bottom",
		"translation":[0.40629836916923525,
		-9.800580024719239,
		5.38032865524292],
		"rotation":[0.5562816262245178,
		-0.5612589716911316,
		0.1754656732082367,
		-0.5871549248695374],
		"scale":[1.0,
		1.0,
		1.0],
		"children":[3]
	},
	{
		"name":"Bottom.1",
		"translation":[-0.5,
		2.8015784137025437e-16,
		1.6263032587282567e-16],
		"rotation":[0.0,
		0.0,
		0.0,
		-1.0],
		"scale":[1.0,
		1.0,
		1.0],
		"mesh":1
	}],
	"meshes":[{
		"primitives":[{
			"attributes":{
				"POSITION":5,
				"NORMAL":6,
				"TEXCOORD_0":7
			},
			"indices":4,
			"material":0
		}]
	},
	{
		"primitives":[{
			"attributes":{
				"POSITION":15,
				"NORMAL":16,
				"TEXCOORD_0":17
			},
			"indices":14,
			"material":1
		}]
	}],
	"accessors":[{
		"bufferView":0,
		"type":"SCALAR",
		"componentType":5126,
		"count":91,
		"byteOffset":0,
		"min":[0.0],
		"max":[3.0]
	},
	{
		"bufferView":0,
		"type":"VEC3",
		"componentType":5126,
		"count":91,
		"byteOffset":364,
		"min":[-17.33623504638672,
		3.8898913860321047,
		-8.592164993286133],
		"max":[-12.102783203125,
		5.8678879737854,
		-3.2260165214538576]
	},
	{
		"bufferView":1,
		"type":"SCALAR",
		"componentType":5126,
		"count":91,
		"byteOffset":0,
		"min":[0.0],
		"max":[3.0]
	},
	{
		"bufferView":1,
		"type":"VEC4",
		"componentType":5126,
		"count":91,
		"byteOffset":364,
		"min":[0.7490354180335999,
		-0.19417467713356019,
		0.3778497576713562,
		-0.4720193147659302],
		"max":[0.8409042358398438,
		0.24396950006484986,
		0.4224245846271515,
		-0.332412987947464]
	},
	{
		"bufferView":2,
		"type":"SCALAR",
		"componentType":5123,
		"count":25920,
		"byteOffset":0,
		"min":[0],
		"max":[5511]
	},
	{
		"bufferView":3,
		"type":"VEC3",
		"componentType":5126,
		"count":5512,
		"byteOffset":0,
		"min":[-6.519087791442871,
		-5.260544776916504,
		-5.260531902313232],
		"max":[6.519087791442871,
		5.260544776916504,
		5.260531902313232]
	},
	{
		"bufferView":3,
		"type":"VEC3",
		"componentType":5126,
		"count":5512,
		"byteOffset":12,
		"min":[-1.0,
		-0.9996563196182251,
		-0.9996875524520874],
		"max":[1.0,
		0.9996563196182251,
		0.9996875524520874]
	},
	{
		"bufferView":3,
		"type":"VEC2",
		"componentType":5126,
		"count":5512,
		"byteOffset":24,
		"min":[0.00570000009611249,
		0.015699997544288636],
		"max":[0.9782999753952026,
		0.7960000038146973]
	},
	{
		"bufferView":4,
		"type":"SCALAR",
		"componentType":5126,
		"count":91,
		"byteOffset":0,
		"min":[0.0],
		"max":[3.0]
	},
	{
		"bufferView":4,
		"type":"VEC3",
		"componentType":5126,
		"count":91,
		"byteOffset":364,
		"min":[0.5,
		1.1449174941446928e-16,
		-3.469446951953614e-17],
		"max":[4.199999809265137,
		1.1449174941446928e-16,
		-3.469446951953614e-17]
	},
	{
		"bufferView":5,
		"type":"SCALAR",
		"componentType":5126,
		"count":91,
		"byteOffset":0,
		"min":[0.0],
		"max":[3.0]
	},
	{
		"bufferView":5,
		"type":"VEC3",
		"componentType":5126,
		"count":91,
		"byteOffset":364,
		"min":[-0.29097211360931399,
		-9.800580024719239,
		5.38032865524292],
		"max":[0.40629836916923525,
		-8.481358528137207,
		6.126452922821045]
	},
	{
		"bufferView":6,
		"type":"SCALAR",
		"componentType":5126,
		"count":91,
		"byteOffset":0,
		"min":[0.0],
		"max":[3.0]
	},
	{
		"bufferView":6,
		"type":"VEC4",
		"componentType":5126,
		"count":91,
		"byteOffset":364,
		"min":[0.5562816262245178,
		-0.5612589716911316,
		0.1754656732082367,
		-0.5871549248695374],
		"max":[0.7490354180335999,
		-0.19417467713356019,
		0.42242148518562319,
		-0.4720193147659302]
	},
	{
		"bufferView":7,
		"type":"SCALAR",
		"componentType":5123,
		"count":25920,
		"byteOffset":0,
		"min":[0],
		"max":[4455]
	},
	{
		"bufferView":8,
		"type":"VEC3",
		"componentType":5126,
		"count":4456,
		"byteOffset":0,
		"min":[-6.2413177490234379,
		-5.105269908905029,
		-5.105257034301758],
		"max":[6.2413177490234379,
		5.105269908905029,
		5.105257034301758]
	},
	{
		"bufferView":8,
		"type":"VEC3",
		"componentType":5126,
		"count":4456,
		"byteOffset":12,
		"min":[-0.9999688267707825,
		-0.998593807220459,
		-0.9986562728881836],
		"max":[0.9999688267707825,
		0.998593807220459,
		0.9986562728881836]
	},
	{
		"bufferView":8,
		"type":"VEC2",
		"componentType":5126,
		"count":4456,
		"byteOffset":24,
		"min":[0.0,
		0.0],
		"max":[1.0,
		1.0]
	},
	{
		"bufferView":9,
		"type":"SCALAR",
		"componentType":5126,
		"count":91,
		"byteOffset":0,
		"min":[0.0],
		"max":[3.0]
	},
	{
		"bufferView":9,
		"type":"VEC3",
		"componentType":5126,
		"count":91,
		"byteOffset":364,
		"min":[-4.199999809265137,
		2.8015784137025437e-16,
		1.6263032587282567e-16],
		"max":[-0.5,
		2.8015784137025437e-16,
		1.6263032587282567e-16]
	}],
	"bufferViews":[{
		"buffer":0,
		"byteOffset":0,
		"byteLength":1456
	},
	{
		"buffer":0,
		"byteOffset":1456,
		"byteLength":1820
	},
	{
		"buffer":1,
		"byteOffset":0,
		"byteLength":51840,
		"target":34963
	},
	{
		"buffer":1,
		"byteOffset":51840,
		"byteLength":176384,
		"target":34962,
		"byteStride":32
	},
	{
		"buffer":2,
		"byteOffset":0,
		"byteLength":1456
	},
	{
		"buffer":3,
		"byteOffset":0,
		"byteLength":1456
	},
	{
		"buffer":3,
		"byteOffset":1456,
		"byteLength":1820
	},
	{
		"buffer":4,
		"byteOffset":0,
		"byteLength":51840,
		"target":34963
	},
	{
		"buffer":4,
		"byteOffset":51840,
		"byteLength":142592,
		"target":34962,
		"byteStride":32
	},
	{
		"buffer":5,
		"byteOffset":0,
		"byteLength":1456
	}],
	"buffers":[{
		"uri":"data:application/octet-stream;base64,",
		"byteLength":3276
	},
	{
		"uri":"data:application/octet-stream;base64,",
		"byteLength":228224
	},
	{
		"uri":"data:application/octet-stream;base64,",
		"byteLength":1456
	},
	{
		"uri":"data:application/octet-stream;base64,",
		"byteLength":3276
	},
	{
		"uri":"data:application/octet-stream;base64,",
		"byteLength":194432
	},
	{
		"uri":"data:application/octet-stream;base64,",
		"byteLength":1456
	}],
	"materials":[{
		"pbrMetallicRoughness":{
			"baseColorFactor":[1.0,
			1.0,
			1.0,
			1.0],
			"metallicFactor":1.0,
			"roughnessFactor":1.0
		},
		"emissiveFactor":[0.0,
		0.0,
		0.0],
		"alphaMode":"OPAQUE",
		"doubleSided":true,
		"name":""
	},
	{
		"pbrMetallicRoughness":{
			"baseColorFactor":[1.0,
			1.0,
			1.0,
			1.0],
			"metallicFactor":1.0,
			"roughnessFactor":1.0
		},
		"emissiveFactor":[0.0,
		0.0,
		0.0],
		"alphaMode":"OPAQUE",
		"doubleSided":true,
		"name":""
	}],
	"animations":[{
		"samplers":[{
			"input":0,
			"interpolation":"LINEAR",
			"output":1
		},
		{
			"input":2,
			"interpolation":"LINEAR",
			"output":3
		},
		{
			"input":8,
			"interpolation":"LINEAR",
			"output":9
		},
		{
			"input":10,
			"interpolation":"LINEAR",
			"output":11
		},
		{
			"input":12,
			"interpolation":"LINEAR",
			"output":13
		},
		{
			"input":18,
			"interpolation":"LINEAR",
			"output":19
		}],
		"channels":[{
			"sampler":0,
			"target":{
				"node":0,
				"path":"translation"
			}
		},
		{
			"sampler":1,
			"target":{
				"node":0,
				"path":"rotation"
			}
		},
		{
			"sampler":2,
			"target":{
				"node":1,
				"path":"translation"
			}
		},
		{
			"sampler":3,
			"target":{
				"node":2,
				"path":"translation"
			}
		},
		{
			"sampler":4,
			"target":{
				"node":2,
				"path":"rotation"
			}
		},
		{
			"sampler":5,
			"target":{
				"node":3,
				"path":"translation"
			}
		}]
	}]
}